<svg width="64" height="64" viewBox="0 0 64 64" fill="none" xmlns="http://www.w3.org/2000/svg">
<path d="M23.1683 40.1704H17.7639V32.7111H23.3372C24.1441 32.7111 24.8384 32.88 25.4202 33.2178C26.0206 33.5368 26.4804 33.9778 26.7994 34.5407C27.1184 35.1037 27.2779 35.7323 27.2779 36.4267C27.2779 37.4963 26.912 38.3877 26.1802 39.1007C25.4483 39.8138 24.4443 40.1704 23.1683 40.1704Z" fill="#7149C6"/>
<path d="M17.7639 30.9096H23.0276C24.0784 30.9096 24.9041 30.6281 25.5046 30.0652C26.1239 29.5022 26.4335 28.7047 26.4335 27.6726C26.4335 26.6405 26.1051 25.843 25.4483 25.28C24.7915 24.717 23.9095 24.4356 22.8024 24.4356H17.7639V30.9096Z" fill="#7149C6"/>
<path d="M43.0799 34.7941L40.516 27.7071L37.9158 34.7941H43.0799Z" fill="#7149C6"/>
<path fill-rule="evenodd" clip-rule="evenodd" d="M4.49884 4.49884C0 8.99768 0 16.2385 0 30.72V33.28C0 47.7615 0 55.0023 4.49884 59.5012C8.99768 64 16.2385 64 30.72 64H33.28C47.7615 64 55.0023 64 59.5012 59.5012C64 55.0023 64 47.7615 64 33.28V30.72C64 16.2385 64 8.99768 59.5012 4.49884C55.0023 0 47.7615 0 33.28 0H30.72C16.2385 0 8.99768 0 4.49884 4.49884ZM22.8587 22.6341C24.0597 22.6341 25.0824 22.8499 25.9268 23.2815C26.7713 23.7131 27.4093 24.2948 27.8409 25.0267C28.2725 25.7585 28.4883 26.5842 28.4883 27.5037C28.4883 28.5921 28.2068 29.5304 27.6439 30.3185C27.2483 30.8591 26.7231 31.3116 26.0683 31.6762C26.9915 32.0729 27.7325 32.6337 28.2913 33.3585C29.0043 34.2593 29.3609 35.3289 29.3609 36.5674C29.3609 37.5995 29.1076 38.5284 28.6009 39.3541C28.113 40.161 27.3905 40.8084 26.4335 41.2963C25.4952 41.7654 24.3599 42 23.0276 42H15.709V22.6341H22.8587ZM38.5653 22.1274L30.6839 42H35.272L36.5939 38.397H44.3834L45.6868 42H50.3594L42.5624 22.1274H38.5653Z" fill="#7149C6"/>
</svg>
